<svg xmlns="http://www.w3.org/2000/svg" viewBox="0 0 640 640" role="img" aria-labelledby="title desc">
  <title id="title">Eric placeholder portrait</title>
  <desc id="desc">A circular illustrated placeholder portrait for Eric.</desc>
  <defs>
    <linearGradient id="bg" x1="0" y1="0" x2="1" y2="1">
      <stop offset="0%" stop-color="#f7efe3" />
      <stop offset="100%" stop-color="#d7b18a" />
    </linearGradient>
    <linearGradient id="coat" x1="0" y1="0" x2="1" y2="1">
      <stop offset="0%" stop-color="#183128" />
      <stop offset="100%" stop-color="#285042" />
    </linearGradient>
    <radialGradient id="glow" cx="50%" cy="24%" r="60%">
      <stop offset="0%" stop-color="#fff8f0" stop-opacity="0.95" />
      <stop offset="100%" stop-color="#fff8f0" stop-opacity="0" />
    </radialGradient>
  </defs>
  <rect width="640" height="640" rx="320" fill="url(#bg)" />
  <circle cx="320" cy="212" r="164" fill="url(#glow)" opacity="0.88" />
  <circle cx="320" cy="254" r="118" fill="#d7a97f" />
  <path
    d="M218 244c14-72 70-118 126-118 46 0 96 27 121 84-22-11-42-14-67-10-18-40-67-58-108-39-19 9-32 23-44 43-10 17-18 31-28 40z"
    fill="#3d2f23"
  />
  <path
    d="M214 492c15-72 70-121 139-121 67 0 124 48 141 121v58H146v-58c11-30 35-50 68-58z"
    fill="url(#coat)"
  />
  <path
    d="M272 378c13 18 28 26 47 26 21 0 37-8 51-25l11 44c-14 14-35 22-61 22-26 0-48-9-63-23z"
    fill="#c49367"
  />
  <circle cx="281" cy="263" r="12" fill="#2b2018" />
  <circle cx="361" cy="263" r="12" fill="#2b2018" />
  <path
    d="M275 322c13 18 31 27 50 27 20 0 38-9 51-27"
    fill="none"
    stroke="#7b5033"
    stroke-linecap="round"
    stroke-width="12"
  />
  <path
    d="M242 553c28-19 55-26 80-26h46c31 0 63 10 101 32"
    fill="none"
    stroke="#f0e1ce"
    stroke-linecap="round"
    stroke-opacity="0.45"
    stroke-width="16"
  />
  <text
    x="320"
    y="590"
    fill="#183128"
    font-family="Syne, Arial, sans-serif"
    font-size="48"
    font-weight="700"
    letter-spacing="8"
    text-anchor="middle"
  >
    ERIC
  </text>
</svg>
